<?xml version="1.0" encoding="UTF-8"?>
<!-- Created with Inkscape (http://www.inkscape.org/) -->
<svg width="54.26mm" height="55.09mm" version="1.1" viewBox="0 0 54.26 55.09" xmlns="http://www.w3.org/2000/svg">
 <g transform="translate(-104.14 -.29126)" fill="#feb205" stroke-width=".26458">
  <path d="m111.15 0.29126s-0.59336 2.1189-0.59336 2.8816-0.67807 1.8646-0.76276 2.3732c-0.0847 0.5085-0.76277 2.712-0.84746 3.3054-0.0848 0.59328-0.93232 3.6444-1.1018 4.0682-0.16955 0.42381-0.93231 2.7122-0.93231 2.7122s0.50858 0 0.67813 0.08478c0.16948 0.08478 0.42373 0.72041 1.017 1.017 0.59327 0.2966 1.017 0.38137 1.3985 0.42381 0.38145 0.04242 1.4832 0.38137 1.7374 0.93223 0.25426 0.55094 0.12713 1.229 0.12713 1.6104s-0.38137 1.5679-1.1018 2.5003c-0.7204 0.93223-1.7374 2.3731-1.9918 2.7546-0.25426 0.38137-0.72041 1.5679-0.93223 1.8222-0.21191 0.25433-1.0594 1.6952-1.4408 2.3308-0.38137 0.63564-1.0594 2.3731-1.229 2.8392-0.16948 0.46617-0.93226 2.0765-1.017 2.6699-0.0848 0.59328 0.12713 2.0341 0.16955 2.712 0.0424 0.678 0.2966 2.9242 0.25426 3.475-0.0423 0.55086-0.0423 2.7969 0 3.0935s0.0423 1.4408 0.12706 1.7375c0.0848 0.2966 0.55094 1.356 0.76276 1.6103 0.21191 0.25426 0.63572 1.0594 0.84754 1.1442 0.21191 0.08478 0.88996 0 0.88996 0s0.29659-0.04235 0.46609 0.08478c0.16955 0.12706 0.7204 0.72041 0.7204 0.72041l1.1866 1.1442s0.50858 0.38137 0.97467 0.38137h0.46617s0 0.12713 0.59336-0.2966c0.59327-0.42381 1.1442-1.356 1.3985-1.7374 0.25426-0.38137 0.46609-1.3985 0.80518-1.3985 0.33896 0 0.67807-0.04235 0.67807-0.33904s0.33904-0.33904 1.017-0.33904h1.8222c0.55086 0 0.97467 0 1.1865 0.42381 0.21191 0.42373 0.97473 1.5255 1.1019 1.5679 0.12706 0.04235 0.76277-0.42381 1.1017-0.42381 0.33895 0 1.7799 0.16955 1.7799 0.16955l0.0847 0.25426 0.38137 0.12713v0.4238s0.84754-0.08478 1.017-0.33904c0.16955-0.25432 1.1866-2.2037 1.1866-2.2037l-0.93226-2.5426-0.38137-0.55094-2.1189-0.8899-0.76277-0.80518 0.2966-0.38137 0.80518 0.76277 2.1612 0.84754 1.1442 1.7374 1.5679 0.16948 0.38137-0.25426h0.80518l0.21184 0.93231-0.12706 0.93226 0.76277 1.7374 2.9665-0.67807-0.29668-1.017 0.0423-0.55094-0.76277-0.42373v-0.42381l0.46617-1.0171-0.93223-0.67807-0.42381 0.04235-0.97475-0.33904-0.0423-0.5085 0.16948-0.29668 0.21183 0.59335 0.67813 0.33904 0.55086-0.08478 1.0594 0.80518 0.25432 0.93226h0.2966l0.0423-0.55086s0.25433-0.33904 0.38137-0.63571c0.12713-0.2966 0.0423-1.1442 0.33904-1.2713 0.29668-0.12713 0.42381-0.04235 0.50858-0.42381 0.0848-0.38145 0.0848-0.80518 0.2966-0.8899 0.2119-0.08478 0.29668-0.38137 0.29668-0.38137l-0.72041-3.5174 1.3985 2.7546s-0.63571 1.8222-0.59335 1.9917c0.0423 0.16955 0.16955 0.67807 0.0423 1.1866-0.12706 0.50858-0.0848 1.1866-0.0848 1.1866l0.76277 2.246 1.8646 0.2966 0.38138-2.3732 1.6527-0.04235s0.84754-0.55086 1.1019-0.63564c0.25426-0.08478 1.7374-0.46617 1.7374-0.46617l2.246 0.42381 1.7375 1.7375 0.80518-0.08477 1.3137 1.1018s0.67807-0.04235 1.1018 0.38137c0.42381 0.42373 0.80513 0.76277 1.1018 0.55086 0.2966-0.21183 0.42381-0.76277 0.21183-1.017-0.21183-0.25426-2.3307-1.5256-2.5426-1.5256-0.21183 0-0.63563-0.08477-0.8899-0.08477-0.25433 0-0.59335-0.63564-0.76277-0.72041-0.16955-0.08471-0.33903-0.33904-0.42381-0.72041-0.0848-0.38137-0.50858-1.1442-0.50858-1.1442l0.97467 0.97475s0 0.67807 0.29668 0.59328c0.2966-0.08478 0.88995-0.76277 0.88995-0.76277s0.12706-0.38137 0.42373-0.42381c0.29668-0.04228 0.55095-0.2966 0.25433-0.42373-0.29668-0.12713-1.3561-0.80518-1.3561-0.80518l-0.55086 0.08478-0.72041-0.84754-0.46617-2.2037-0.2966-0.16955-0.93226 0.55094-0.80518 0.21183-0.0848-0.97467 0.38137-0.55086-0.76277-1.4408-0.2966-1.6104-0.0423-1.6951 0.55086-0.12713-0.38132-1.3985-0.55094-0.55094 0.46617-0.21183 0.46609 0.33904-0.0423-0.93226-0.38132-0.29668s-0.2119-0.42373-0.16955-0.76277c0.0423-0.33904 0.2119-0.46609 0.2119-0.46609s0-0.84754-0.16955-0.84754-0.4238-0.2119-0.38137-0.55094c0.0424-0.33904 0.21184-0.72041 0.21184-0.72041l-0.84746-1.3137 1.2713-0.55086 0.0423-1.1018-1.017-0.04235-0.59328-1.1018-0.12713-1.8222-0.5933-0.42381-0.59335-2.2037s0.97467-3.0935 1.0594-3.5174c0.0848-0.42381-0.0423-1.3138-0.0423-1.3138l0.46617-0.12706 0.0848 0.72041s-0.16955 2.0341-0.21191 2.2883c-0.0423 0.25433-0.5085 0.59336-0.5085 0.59336l0.12706 0.33904-0.16948 0.63564 0.16948 0.46617-0.2966 0.46617 0.0848 1.1017 0.76277 0.59335 0.46617 0.46617s-0.0848-0.50858 0.16948-0.72041c0.25426-0.2119 0.50858-0.38137 0.50858-0.38137l0.0848 0.84746 0.25426 0.04235-0.67813 1.1018-0.0423 0.59328 0.5933-0.25425v0.67807l0.38137-0.38137 0.88995 0.55094 1.1865 1.907 0.0848-0.97475 0.55087-0.21183 0.25432 0.04235-0.25432 2.6696 0.29667 0.04235 0.0423 0.50858-0.2119 0.08478 1.229 1.2713 0.46617 1.0594s0.0848-0.80518 0.33904-1.017c0.25426-0.21185 0.46617-0.33904 0.46617-0.5933 0-0.25433-0.42386-0.88995-0.29668-1.1442 0.12713-0.25433 0.50858-0.76277 0.67807-0.84754 0.16955-0.08478 0.59336-0.38137 0.59336-0.38137l0.21183-0.97467s0.67808-0.63564 0.67808-0.80518c0-0.16948 0.38137-2.9242 0.38137-2.9242s0.88995-0.21183 1.3561-0.5085c0.46609-0.29668 0.8899-0.59336 0.8899-0.80518 0-0.2119 0.21183-0.46617-0.0424-0.67808-0.25425-0.2119-0.63563-0.16955-0.80518-0.16955-0.16947 0-0.42381-0.16948-0.42381-0.16948s0.84754-1.4408 0.84754-1.7375c0-0.2966-0.29659-0.84746-0.63563-0.84746h-1.0594l0.21184-0.72041-0.67808 0.16948-0.0423 0.2966-0.63563 0.25433-0.38137 0.72041 0.29659 0.33904-0.38137 1.6527-0.80512 0.2966-1.4833 2.9242h-0.29667l-0.0848-0.67807-0.55086 0.12713v-0.59335l-1.3985-1.1442 1.6527 0.97467 0.29654-0.12713 0.2119-0.63564 0.63564-0.80518-0.21184-0.16948 0.80518-0.72041h0.46617l0.0847-0.76277 0.46617-1.1442-0.12713-0.67807h0.33904l0.59335-1.1866-9.7467-3.2205v0.55086l-5.0006-1.8646-0.38137-1.4408 0.16955-0.84754s-0.38137-0.55094-0.50859-1.0594c-0.12705-0.50858-0.29659-0.84754-0.29659-0.84754h-1.017l-0.12712-0.55086-1.6527-0.80518-0.25426 0.38137-0.63571-0.50858 0.59335-0.97467-0.59335-0.042352-0.38137 0.50858-0.25426 0.42373 0.2966 0.33909s-0.33904 0.42373-0.67807 0.46609c-0.33904 0.04236-0.2966 0.59335-0.2966 0.59335v0.55086l-0.50858 0.55094-0.25426 0.12706v0.50857l-0.8475-0.2119z"/>
  <path d="m118.05 50.126-0.63564 3.3054h0.50851l0.55094 1.3137 3.2208 0.63571 1.8646-0.08478 0.80512-0.38137s-0.16948-0.59328-0.12705-0.76277c0.0424-0.16948-0.97473-1.5256-0.97473-1.5256l-0.5933 0.42381v-0.84754l-0.97467-0.67807-1.6528-0.38137-1.1865-1.1442-0.38137 0.25432z"/>
  <path d="m149.58 25.207-0.25426 0.12706 1.1017 1.9918-0.12706 0.46609-0.12713 0.55094s-0.38137 0.67807-0.38137 0.88995c0 0.21183 0.67808 0.97467 0.76277 1.1442 0.0848 0.16948-0.21183 0.5933 0.0848 0.72041 0.29659 0.12706 0.5085 0.5933 0.5085 0.80513 0 0.2119 0.46617 0.33904 0.55094 0.67807 0.0848 0.33909 0 0.50858 0.2966 0.80518s0.42381 0.33904 0.63563 0.04235c0.21191-0.2966 0.63572-0.55086 0.50859-1.017-0.12706-0.46617 0.0848-1.1018-0.2966-1.3137-0.38137-0.2119-0.38137-0.63572-0.25433-0.88995 0.12713-0.25425 0.55094-0.42381 0.33909-0.72041-0.2119-0.2966-0.59335-1.3985-0.59335-1.7799 0-0.38137-0.42381-0.2119-0.63564-0.38137-0.21183-0.16955-0.7204-1.1866-0.80518-1.5256-0.0847-0.33904-0.25425-0.97467-0.25425-1.3137 0-0.33909-0.12713-0.33909-0.2966-0.33909-0.16955 0-0.2966 0.25433-0.2966 0.25433l-0.29668 0.12706-0.12705 0.33904z"/>
  <path d="m156.11 29.065 0.97467 1.017h0.55086l-0.25425-0.55086-0.42381-0.55094 0.2119-1.1442 0.0423-1.3985 0.2966-0.46617 0.8899-0.16948-1.9493-2.3308-0.55086 0.2119v3.0088l-0.0848 0.29668 0.5085 1.0594z"/>
 </g>
 <text x="12.47448" y="30.680477" fill="#1a1a1a" font-family="sans-serif" font-size="8.4667px" font-weight="bold" stroke-width=".26458" xml:space="preserve"><tspan x="12.47448" y="30.680477" stroke-width=".26458">Bronx</tspan></text>
</svg>
