<?xml version="1.0" encoding="UTF-8"?>
<!-- Created with Inkscape (http://www.inkscape.org/) -->
<svg width="60.445mm" height="71.647mm" version="1.1" viewBox="0 0 60.445 71.647" xmlns="http://www.w3.org/2000/svg">
 <path d="m25.655 1.0488 1.9778-1.0488h1.4383l3.2962 1.4683 0.77907 1.738 0.68926 0.68927 1.1387 0.50935 1.4383 0.29961 0.56941 0.68927 0.74912 1.9777 0.44942 0.65924v0.71916l0.4495 0.50935-0.4495 0.53938 0.17977 0.77914 0.50943 0.35962 0.23969 1.0188 0.23977 0.23969-0.32957 0.47945 3.1163 2.3972-0.23976 0.53938 0.77914 0.56933-0.35962 0.56941 2.2474 1.648-0.3895 0.68927 1.3485 1.0487-0.0599 0.35962 0.35962 1.1986-0.23976 0.02996 1.5883 2.2474 0.6292-1.0787 0.59939 0.74912 0.62926-0.4495 0.32959 0.20973 0.56933-0.83899 1.2286-0.65924 1.4384-1.4982 1.768-1.2885 1.6481-0.32964 0.899 5.4838 0.68918-0.05993 0.20974 1.3484 0.47953 0.03 0.53933 3.2062 0.899-0.14988 0.71916 3.3261-0.95893 0.29961 0.2997 1.3784-0.65924 0.0599-1.2586 0.65923 0.56936 0.89893-0.47945 0.26971s0 0.26972 0.32964 0.35962c0.3296 0.0899 0.59931 0.47946 0.86897 0.74912 0.26967 0.26966 0.68919 0.95893 0.68919 0.95893s-0.23969 0.50935-0.35962 0.56935c-0.11985 0.0599 0.03 1.6481 0.03 1.6481l-1.6481 0.41947s0.03-0.59931-0.23976-0.59931c-0.26966 0-0.41947 0.2397-0.41947 0.2397s-0.4495 0.11985-0.71917 0.11985c-0.26966 0-0.35962 0.29969-0.5993 0.14987-0.23977-0.14987-0.26972-0.26971-0.4495-0.26971h-0.59939l0.53938 0.80912 0.98888 1.8878-0.0899 0.41953-1.4982 1.1687-0.80909-0.41952-0.20973 0.26971v0.71917l-0.32965 0.14981s-0.0899-0.8091-0.29961-0.56933c-0.20973 0.23976-0.14988 0.4495-0.14988 0.4495l-1.2885 1.4683 0.2098 0.29961-0.26972 0.23977-0.29969-0.11992-1.0487 1.2286s-0.62926 0.0599-0.68919 0.3296c-0.0599 0.26971 0.0899 0.68926 0.03 0.899-0.0598 0.20973-0.65923 0.5993-0.65923 0.5993s-1.3784-0.32959-1.6481-0.32959-0.26972 0.35962-0.14981 0.62926c0.11985 0.26972 2.9964 4.9742 2.9964 4.9742l-0.41953 0.32964-0.9888-0.14988-2.2174 1.4982-0.0599 0.56941 0.29962 0.0899 4.1952-0.26972 3.0565 8.9596-0.41953 1.1687-6.023 1.708-1.9477-1.6781-0.95885-0.50935 0.38949-0.59939 1.5282 1.2586 0.77914-0.23977-0.03-0.83899-0.77914-1.1986-0.11985-0.53932-0.23976-0.62926-0.74912 0.17977-0.53938 0.41947-0.38949-0.11985-1.2585 0.32965-0.41953 0.50935-0.65923-0.53938s-0.17977 0.26971-0.17977 0.50943c0 0.23969 0.38949 0.95885 0.53938 1.0487 0.1498 0.0899 0.29961 0.23977 0.29961 0.23977l-0.23977 0.41947-0.44942 0.0899-0.62926-0.41947-0.03 0.59931-4.2251-1.4384s-0.50943 0.14988-0.80912 0.29969c-0.29962 0.14981-0.59931 0.35962-0.59931 0.35962l-0.0899 0.56936 0.0599 2.0975-0.74912 0.11992-0.4495-0.11992-0.26971 0.17977-5.6933 0.65929h-1.6781l-9.9184 1.7379-3.9555-0.14981-1.708-0.92903s-1.1687-0.11985-1.3784-0.29956c-0.2098-0.17977-0.26972-1.0189-0.29969-1.1388-0.02996-0.11984-0.23969-0.62926-0.14981-0.80909 0.08988-0.17984 0.95885-0.839 1.2286-0.86898 0.26972-0.03 0.86897-0.17977 0.86897-0.17977l0.08989-0.29961 0.47945-0.0599 0.32964 0.23976-0.08988 0.14981 0.80912-0.14981 3.6258 0.83899-0.05992-0.35962h0.26972s0.23976-0.32964 0.11985-0.50943c-0.11985-0.1797-0.50935-0.1797-0.50935-0.1797l-0.29961-0.23976 0.41947-0.80912-1.5582 0.23976-1.4384-0.41952 0.08988-0.41947-0.47945 0.32959 0.08988-1.2286 0.83899-0.50942-0.23976-0.38952 0.17977-0.03-0.20973-0.4495 0.53938-0.38949-0.23976-0.26972-0.62926 0.2397-0.23969-0.26966 0.83899-0.8091-0.41952-0.23976-0.41947 0.0599-0.29961-0.32965-0.35962 0.38958s-0.11992-0.71917-0.50943-0.899c-0.38949-0.17985-2.1875-1.6181-2.5771-1.8579-0.38949-0.23976-0.86897-0.4495-1.2286-0.4495-0.35962 0-0.65924 0.0899-0.92895-0.03-0.26972-0.11991-0.02996-0.35962-0.56936-0.4495-0.53938-0.0899-2.7268-0.35962-2.9366-0.50943-0.20973-0.14981-1.5882-1.1686-1.5882-1.1686l-0.20973 0.35962h-0.29969s0.29969-1.1388 0.14988-1.1687-0.83899-0.62926-0.92895-0.86898c-0.08988-0.23976-0.4495-1.2286-0.53938-1.5283-0.08988-0.29961-0.47945-2.0376-0.56936-2.4871s-0.20973-1.5582-0.17977-1.9477c0.02996-0.38951 0.17977-1.8578 0.29969-2.0376 0.11985-0.17978 1.3185-3.596 1.3783-3.8055 0.05992-0.20973 0.41952-0.77909 0.41952-0.77909l-0.32964-0.23976 1.0188-1.1986 0.14988-0.35962 0.59931 0.32964 0.47953-0.68926-0.50943-0.3895 0.68927-0.80912 0.9888 0.50943 0.4495-0.56936-0.26972-0.38949 0.53938-0.62926 0.29961 0.17977 0.38949-0.47953-0.86897-0.68918 2.2773-2.5171 0.47953 0.35962 1.0487-0.74911-0.4495-0.32965 1.708-1.2286 1.1087 0.92896 0.23969-0.23977 0.59939 0.0599-0.65924-0.62926-0.08988-0.74912 1.4383 1.0788 0.29961-0.17977 0.17977-0.47945-1.1387-0.77914 0.83899-0.44951 0.53938 0.32965 0.59931-0.47945-0.71908-0.41953-0.74911-0.0599-1.1087 0.65929-0.32964 0.14981 0.35962-1.6181-0.29961-0.03-1.8879 2.5471-1.4982 0.20973-0.56936-0.50935-0.23976-2.3673-0.29961-0.14987 0.17977-0.2397 0.62926 0.35962 0.26972 2.4272 1.2286-0.20974 0.4495-1.3185-0.35962-0.56941-1.768-1.2585-0.71916-1.3185 0.08988-1.4384 5.0641-4.1053 2.3972-5.6335 1.1087-1.2286h0.41947l0.17977 0.17977 3.3261-0.08996s0.62926-0.14981 0.80912-0.29962c0.17977-0.14981 1.7979-1.4084 1.7979-1.4084l0.65924 0.86902 0.08988-0.2098-0.05985-0.80912 0.92895-3.1464 0.50935-0.6292 0.80912-1.8579 0.59931-0.83899-0.02996-2.0976-0.35962-1.2286v-1.5583z" fill="#0a9e84" stroke-width=".26458"/>
</svg>
