<?xml version="1.0" encoding="UTF-8"?>
<!-- Created with Inkscape (http://www.inkscape.org/) -->
<svg width="85.094mm" height="106.77mm" version="1.1" viewBox="0 0 85.094 106.77" xmlns="http://www.w3.org/2000/svg">
 <g transform="translate(-94.84 -49.104)" fill="#9cab08">
  <path d="m94.84 76.522 0.38132-2.5003s-0.04228-0.63564 0.12713-0.84746c0.16955-0.2119 1.1866-1.9918 1.3138-2.2037 0.12706-0.2119 2.3731-3.2631 2.5426-3.5174 0.16948-0.25426 1.8221-3.0088 2.0341-3.3054 0.2119-0.29668 0.55086-0.84754 0.93226-1.0594 0.38137-0.2119 0.93231-0.55094 1.1018-0.72049 0.16955-0.16948 0.42381-0.80513 0.42381-0.80513l-0.97467-0.42381s-0.25426-0.59336-0.0848-0.84754c0.16955-0.25426 0.63564-0.72041 0.84754-1.1018 0.21184-0.38137 0.33904-0.80518 0.33904-0.80518l1.1018 0.55094v0.46617s0.59327 0.12706 0.76276 0c0.16948-0.12713 0.21184-0.12713 0.21184-0.12713s0.50858-0.38137 0.7204-0.55086c0.21184-0.16955 0.42381-0.33909 0.63572-0.46617 0.21183-0.12713 1.8646-2.0765 1.8646-2.0765s0.88995-1.1017 0.97475-1.2713c0.0847-0.16955 0.0847-0.25426 0.33904-0.42381 0.25425-0.16948 1.4408-1.1866 1.4408-1.1866l1.2289 0.38137-0.12706 0.25433 0.84746 0.97467 0.25433-0.50858-0.2119-0.12706 0.50858-0.38137 1.568 1.2713h0.33895l0.42381 0.59336-0.76276 0.80513 0.63563 0.42381-0.2119 0.33904s0.80518 0.50858 0.88995 0.67813c0.0848 0.16948 0.84754 0.76277 0.84754 0.76277l-0.38137 0.59336-0.0424 0.55086 0.46609 0.08478-0.21184 0.84754 0.38137 0.08471 0.2966-0.2966 1.6951-0.16948-0.38137-2.4578 3.602-0.55094s0.38137 0.08478 0.76277 0.33904c0.38139 0.25426 4.8734 3.2631 4.8734 3.2631s0.29659 0.12713 0.0423 0.42381c-0.25426 0.29668-0.59336 0.93226-0.59336 0.93226l1.0171 0.46617 0.12706 0.59328s-0.46609-0.5085-0.76277-0.5085-0.55094-0.04235-0.88995 0.08478c-0.33904 0.12706-0.55086 0.12706-0.88995 0.12706h-0.42374s1.0594 1.7374 1.356 1.9918c0.2966 0.25426 1.0594 1.0594 1.3985 1.1865 0.33904 0.12713 1.1018 0.08477 1.2713 0.2119 0.16955 0.12713 0.55094 0 0.72041-0.12713 0.16955-0.12706 0.59335 0 0.88995-0.2966s0.67807-0.84754 0.80518-1.017c0.12713-0.16955 0.25425-0.2966 0.63563-0.63564s0.63564-0.55094 0.63564-0.55094-1.4408 0.25426-1.7798-0.04235c-0.33904-0.2966-0.55087-0.3814-0.72041-0.46609-0.16948-0.08478-0.59328-1.0595-0.59328-1.0595l-0.0423-0.84746-0.21183-0.42381h0.33895l0.16955-0.3814-0.12713-0.33904s0.25433-0.59328 0.33909-0.97467c0.0847-0.38137 0-0.55094 0-0.55094l-0.38145-0.12706-0.16947-0.50858v-1.1866h-1.8646l-0.0423-0.2966-0.67807-0.25426 0.0423-0.42381-0.46617-0.42381 0.76277-0.25426 0.46616-0.38137 0.38138 0.04235 0.46616-0.42381 0.25426-0.80518h-0.42381l-0.12713-0.33904s0.42381 0 0.25433-0.2966c-0.16955-0.2966-0.16955-0.2119-0.16955-0.55094s-0.0424-0.59328-0.0424-0.59328l0.4238-0.21183s0.76277 0.63564 1.017 0.63564c0.25432 0 0.63571-0.08478 0.63571-0.08478l-0.0848-0.42381 1.4408-0.38137 0.0424 0.33904 0.46616-0.08471s0-0.67813 0.21184-0.84754c0.21183-0.16955 0.4238-0.16955 0.4238-0.16955s0.2966-0.04235 0.46609 0.29668c0.16956 0.33904 0.42381 1.6103 0.42381 1.6103s0.16955 0.2966-0.0423 0.38137l-0.21183 0.08478 0.25425 0.84746s0.0848-0.16948 0.46617 0.04235c0.38137 0.2119 0.50858 0.25433 0.50858 0.25433l0.55087-0.16955v-0.46617l0.46617-0.67807 0.25425 0.04235 0.50858-0.38137 0.12706-0.97467-0.55086-0.72041 0.93226-0.16955v-0.25426s0.72041 0.21183 0.88995-0.04235c0.16948-0.25426 0.55086-0.80518 0.55086-0.80518l0.76277-0.59328 2.2037 1.6527 0.25433-0.2966h0.29659l0.72041 0.59335 0.38137-0.2119 0.76277 0.16955 0.12706 0.16948 0.59335-0.2966 0.21184 0.16955s0.97467 0.08471 1.4832 0.21183c0.50858 0.12713 1.1018 0.42381 1.1442 0.67807 0.0423 0.25432-0.2119 1.1018-0.2119 1.1018l0.88995 0.55094s3.0935-0.08477 3.2631-0.08477c0.16949 0 0.46617-0.42381 0.50859-0.72041 0.0423-0.2966 0.12705-0.93231-0.0848-0.97467-0.2119-0.04235-0.38137-0.2119-0.38137-0.2119s0.16948-0.33904 0.5085-0.5085c0.33904-0.16955 0.88996-0.16955 1.0594-0.16955 0.16955 0 1.0171 0.55094 1.0171 0.76277s0.16948 0.59328 0.25426 0.76277c0.0848 0.16948 0.38137 0.42381 0.42381 0.80518 0.0424 0.38137 0.2966 0.80513 0.46609 0.93226 0.16955 0.12713 0.0848 0.63564 0.0848 0.63564l-0.46609 0.04235-0.76276 0.25426 2.2883 3.1784 0.88995 2.5426 1.907 2.3731 1.3985 0.59336-0.33904-1.6952-0.2119-0.55086 0.80518-0.55094-0.59328-1.6103s0.0847-0.88995 0.25426-1.2713c0.16955-0.3814 0.67807-1.1866 0.67807-1.1866l0.50859-0.2966 15.976 13.01 0.55094 5.6785-2.5851 4.7887-1.0594 0.38145-1.1442 0.08471-2.5426 0.80518-1.5255 0.59328-1.0171 0.59336 0.84754 2.8816 0.46617 2.1189 0.25426 13.561-0.5933 1.4832-0.25433 3.8986 0.25433 0.38137v0.63563h-0.25433v0.38137l0.84754 1.907 0.0848 1.2713 0.12713 0.50858v0.42381l-1.6952 0.93223-1.4408 0.21184-2.2037 0.97475-0.12713 1.9493-0.16948 0.2966 0.21184 0.42381-1.6103 1.2714h-0.46617l-0.16955 1.4832-2.6696 1.0594-2.246 1.1866-0.88995 1.1865-0.38132 0.16955 0.12706 1.2289-0.76277 0.88995 0.88995 0.2966 0.21184 1.6104-0.72041 0.7204-2.3731-0.38137-0.16955-0.46617 1.017-1.229 0.42381-2.0765-0.42381-0.59328-3.475-1.8222-0.25426-0.38137-0.72041-0.21191-0.7204-0.88989-0.38137 0.0848-0.55087-0.72041-9.5774-5.7211h-1.3561l-0.16948 0.46617-0.97468-0.97468-0.59335-0.0848 0.25432 1.017-1.3985 0.0424-0.2966-0.38137-0.46609 0.12713 0.33904 1.6103h-1.1442v0.42381l-0.46617-0.46609-2.6699 0.42373-0.7204-0.67808-0.12706-0.76276 0.93226-1.4833-0.16955-0.16948-1.1442 0.42381-0.55094-0.0423-0.33904-0.50858-0.16948-0.55086h-0.46617l-0.63563-1.0594-0.25433 0.33904-0.84746-1.4408 1.1442-0.59335 0.76277-0.0847-0.29668-1.3985 0.93231-0.2966-0.72041-3.3054-0.88995 0.12713-0.55086-3.2208h-0.46617l-0.21183-1.3985-0.63572 0.12706-0.93226-5.5515-1.6527 0.38137-1.8646 1.2713-1.4832 1.5256-1.1018 0.63563-0.55095 0.84754-0.29659-0.21183-0.72041 0.46609-0.55094-0.76277-0.63564 1.1442-1.6103-2.2884h0.33904l-0.46617-1.2713 0.12713-0.33904-1.3985-1.0594 0.42387-0.67807-2.2884-1.6952 0.38137-0.5085-0.76277-0.59336 0.25425-0.5085-3.1782-2.4156 0.38137-0.5085-0.2966-0.2966-0.25433-0.97475-0.46609-0.33904-0.2119-0.76277 0.50858-0.55086-0.46617-0.50858v-0.72041l-0.46617-0.72041-0.76277-1.9493-0.5085-0.63571-1.6528-0.46609-1.0594-0.46617-0.59328-0.59328-0.76276-1.7375-3.3054-1.5255-1.4408 0.08471z" stroke-miterlimit="10" stroke-width=".24502"/>
  <g stroke-width=".26458">
   <path d="m103.09 155.87 2.4572-0.839 5.6933-1.6781 2.3972-0.2997 1.4982-0.47939 0.17977 0.41947 9.1096-3.2361 2.1575-0.95885-0.0599-0.41953 0.95893 0.17978s5.9931-3.2361 6.7723-3.6558c0.77906-0.41947 4.5548-1.6781 5.5136-2.0376 0.95893-0.35962 5.2139-1.9178 5.6335-2.0376 0.41952-0.11992 6.0529-1.2586 6.0529-1.2586l0.41952-0.41952s3.8357-1.0188 4.3151-1.0188c0.47945 0 2.1575 0.23969 2.4572 0.23969s4.0153-0.23969 4.0153-0.23969 0.77909-0.83908 1.0787-0.83908c0.29962 0 1.6181-0.89892 1.6181-0.89892l0.53938 0.2397 0.59939-0.11985 1.1986 0.17977-0.17977-0.83899 0.0599-2.8168-0.41953-0.59931-0.31467-0.18887-0.93226-1.1442 0.16948-0.16955-0.84746-1.7374-0.42381 0.16955-0.50858-0.25426-2.2037 1.0594v-0.33904l-1.2289-0.2119h-0.46616l-0.16949-0.38137-0.29667 0.21183-0.76277-0.25426-0.21183-0.63563-0.63564-0.25426-1.1866 0.12706h-0.76276l-0.33904 0.33904 0.16948 0.76276h0.50858l0.0848 0.21191 0.84746 0.59327-0.25426 0.33904v1.017l-0.2966 0.59336 0.2119 1.0594 0.0423 1.3985 0.46617 0.12713 0.2119 0.46609-1.1442-0.21183-0.46617 0.16948-0.38137-0.42373-0.25425-1.1866-0.33909 0.0423-0.76277 1.3985-0.42381 0.25426-0.33903 0.0423-0.46617-0.5933 0.59327-0.63564h0.46617l0.97467-1.0595 0.33909-1.4408 0.46609-0.42373-0.29659-0.76277-0.33904-0.46617-1.3137-0.0423-0.46617 0.42381-0.2966 0.8899-0.97475 0.76277 0.42381 0.7204-0.42381 0.42381-0.63563 1.0594-1.017 1.3138 0.16948 0.93226-0.46609 0.16955-0.25433-0.50858 0.21191-0.76277 0.33904-0.88995 0.67807-0.59328 0.21183-0.5933 0.29668-0.33904-0.33909-0.33903-1.9493 1.7798-0.38137-0.0423-0.12706 0.21183-2.0342 0.12713-0.21183-0.12713h-0.76277l-0.42381 0.59335 0.33904 1.1442-0.42381-0.0848-0.38137-0.2966-0.76277 1.1018-0.29659-0.12713-0.0848 0.2966 0.0848 0.25426-0.21184 0.25432-0.84754 0.38132-2.4578 1.8647-0.2966-0.33909-2.119 0.72041-0.0423 0.50858-2.5426 0.88996h-0.88995l-0.16948 0.25425-2.0765 0.0424-0.97467-0.25433h-0.63564l-3.5597 2.5851-5.3396 3.3904-1.2713 0.0423-0.63571 0.25426-0.33904-0.2966-1.2713 0.2966-1.017-0.25426-0.93232 0.72041-0.38137 0.72041-0.93226 0.33903-0.0423 0.38137-0.63563-0.2119-0.93231 0.33909-1.1018-0.2119-0.84746-0.63564h-0.59335l-1.7374 1.1018-0.93226 0.25425-0.42381-0.12712-0.59336 0.25432-0.38131-0.2119s-0.29668 0.42381-0.67813 0.42381-0.97467 0.2966-1.356 0.38137c-0.38137 0.0848-1.1866 0.38137-1.4408 0.38137-0.25426 0-0.33903 0.2966-0.46616 0.50858-0.12706 0.21183-0.50851 0.21183-0.50851 0.55086v1.6952z"/>
   <path d="m154 128.35s0.12712-0.46617-0.21184-0.59335c-0.33903-0.12706-0.76276-0.46617-0.76276-0.67808 0-0.2119 0.0423-0.2966-0.25426-0.55086-0.2966-0.25433-0.50858-0.46617-0.2966-0.59336 0.21183-0.12712 0.21183-0.25425-0.0848-0.25425-0.29661 0-0.42381-0.0848-0.2966-0.38137 0.1272-0.2966 0.21183-0.12713-0.12713-0.42381s-0.42381-0.42381-0.72041-0.55086c-0.29659-0.12713-0.59327 0.0423-0.55086-0.16955 0.0423-0.21184 0.33904-0.2966 0-0.2966s-1.2714 0.33903-1.2714 0.33903-0.12706 0.38137-0.16948 0.63564c-0.0423 0.25433-0.33909 0.55094-0.59335 1.017-0.25426 0.46617 0 0.46617-0.21184 0.72041-0.2119 0.25432-0.33903 0.25432-0.42381 0.59335-0.0848 0.33904-0.46617 0.59328-0.50858 0.84746-0.0423 0.25433 0.12713 0.33909-0.0423 0.50859-0.16948 0.16955-0.12706 0.29659-0.29655 0.50858-0.16955 0.21183-0.42386 0.46609 0.0847 0.46609 0.50857 0 1.1866-0.0423 1.5256 0.16955 0.33904 0.21183 1.1018 0.88995 1.1018 0.88995s0.0848 0.97467 0.2966 0.93226c0.21182-0.0424 1.3138-1.5256 1.7374-1.6104 0.42381-0.0847 0.80518-0.38137 0.80518-0.38137z"/>
   <path d="m146.24 132.59s0.88995 0.21183 1.0594 0.21183h1.3138c0.29654 0 0.97467-0.59328 0.8899-0.84746-0.0848-0.25433-0.21184-0.63572-0.16948-0.80518 0.0423-0.16955-0.50859-0.80518-0.72041-0.88995-0.21191-0.0847-0.76277-0.33904-1.0171-0.33904-0.25425 0-0.67807 0.12713-0.93226 0.2966-0.25425 0.16955-0.38137 0.50858-0.50858 0.76276-0.12712 0.25433-0.12712 0.46617-0.0848 0.63572 0.0423 0.16955 0.2119 1.0595 0.16948 0.97475z"/>
   <path d="m146.03 128.52s0.55094 0.16956 0.72041-0.0848c0.16955-0.25426 0.46617-0.97467 0.46617-1.3137s0.12713-0.67807-0.0423-0.8899c-0.16955-0.2119-0.12713-0.59335-0.12713-0.59335s0.55086 0.76276 0.59327 0.50858c0.0424-0.25433 0-1.0594 0.21191-1.229 0.21183-0.16948 0.5085-0.76277 0.5085-0.76277s0.88995-0.2966 0.76277-0.50858c-0.12713-0.21183-0.2966-0.0847-0.63564 0-0.33903 0.0848-0.0423-0.2966 0.16949-0.46609 0.2119-0.16955 0.16955-0.25433 0.16955-0.25433l-0.59336-0.38131s-0.12706-0.12713-0.5085-0.12713c-0.38145 0-0.33904 0.33904-0.72041 0.38137-0.38137 0.0423-0.2119 0.16948-0.50858 0.38137-0.2966 0.21183-0.84746 0.42381-0.84746 0.42381l-0.50858 0.76277 0.0423 0.46609v0.33903l0.63563 1.4408-0.0423 0.55095 0.33904 0.29659z"/>
   <path d="m139.63 117.54 0.0423 1.229-1.017 0.46617-1.1442-1.0594-0.63563-0.2119-0.0423 0.2119 0.5085 2.3307-0.46609 1.7798-0.2966 0.42381 0.21183 0.2966-0.42381 0.42381v0.76276l-0.42381 0.2966-0.25425 1.5256 0.33903 1.0594-0.93225-0.0848-0.2966 0.63572 1.017 0.76277-0.21191 0.25425 0.38137 1.017 0.67808-0.67807 0.0848-0.76277 1.0594-0.2119 0.2119 0.42381 0.8899 0.50858 0.55094-0.33903 0.0847 0.7204 0.55094 0.72041 0.33904 0.76277 0.5933 0.21183-0.8899 0.97475 0.12706 0.25426 0.0423 1.1442-0.46609 0.72041v0.38137l-0.59335-0.0423-1.3985 0.72041-0.76277 0.0847-0.55086 0.59335 0.16948 0.72041s0.97475 0.25426 1.4408 0.12713c0.46617-0.12713 0.67808-0.16955 1.1018-0.0848 0.42373 0.0848 0.46617 0.12706 0.84754-0.0848 0.38137-0.21183 1.3985-1.1442 1.3985-1.1442s0.21183-0.5085 0.25425-0.76277c0.0424-0.25425 0.21191-0.84746 0.29668-1.1018 0.0847-0.25426 0.0847-1.2289 0.0847-1.2289l0.55094-0.46617 0.46609-0.50858-0.16948-0.80512h-0.33904l-0.2119-0.84754-0.67808-2.8816 0.59336-0.33904 0.46609-0.59335v-0.46609s-0.33904-0.38137-0.59328-0.38137c-0.25425 0-0.63563 0.46617-0.63563 0.46617l-0.2966-1.0595s0.42373 0.0423 0.63564 0.0423c0.21183 0 0.63563 0.0424 0.42381-0.21183-0.21191-0.25425-0.59336-0.63563-0.59336-0.88995 0-0.25426 0.29668-0.42381 0.12713-0.84746-0.16955-0.42381-0.33904-0.88995-0.63564-0.88995-0.29667 0-0.50858-0.25426-0.50858-0.25426l-0.0423-0.76276s0.42381-0.46617 0.38137-0.63564c-0.0423-0.16955-0.25426-0.55094-0.25426-0.55094l-0.46617-0.46609-0.25425-1.229z"/>
  </g>
 </g>
 <text x="16.727734" y="54.495823" fill="#777777" font-family="sans-serif" font-size="12.7px" font-weight="bold" stroke-width=".26458" style="font-variant-caps:normal;font-variant-east-asian:normal;font-variant-ligatures:normal;font-variant-numeric:normal" xml:space="preserve"><tspan x="16.727734" y="54.495823" font-family="sans-serif" font-size="12.7px" font-weight="bold" stroke-width=".26458" style="font-variant-caps:normal;font-variant-east-asian:normal;font-variant-ligatures:normal;font-variant-numeric:normal">Queens</tspan></text>
</svg>
