<?xml version="1.0" encoding="UTF-8"?>
<!-- Created with Inkscape (http://www.inkscape.org/) -->
<svg width="43.716mm" height="82.59mm" version="1.1" viewBox="0 0 43.716 82.59" xmlns="http://www.w3.org/2000/svg">
 <g transform="translate(-67.456 -16.312)" fill="#cb003e">
  <path d="m77.891 91.646s-0.77914-0.47945-0.77914-0.899c0-0.41947 0.11985-0.77906 0.11985-0.77906l-0.83894 0.05985 1.3783-9.0495 1.2586 0.17977 0.11985-1.4983-1.0188-0.29961 0.11992-1.0188 0.89892 0.29961 0.11992-0.95885-1.0788-0.05992 0.23976-1.5582 1.0188 0.11985v-0.53938h-0.89892v-0.35962h0.53938l-0.23976-0.71908-0.47945-0.17977 0.53938-2.9967h0.35962l0.35954-0.899-0.53933-0.29962 0.53933-1.4383 0.65929 0.17977 0.29961-0.77914-0.59939-0.11985 0.17977-0.35962-0.35962-0.11985 1.1986-1.4982 0.53938 0.29961 0.23977-0.35962-0.71916-0.29961 1.6781-3.3562 0.77907 0.35962 0.17977-0.35962-0.71908-0.35954 0.89892-1.6181 0.71916 0.29961 0.29969-0.5393h-0.47953l0.95893-1.6181h0.47945l0.05985-0.23976h-0.77906l0.17977-0.35954h0.71916l8.1505-15.223 0.41947-0.899-0.29961-0.23969 1.1986-1.6181 0.35962 0.17977s1.3185-1.6781 1.3784-2.0376c0.05985-0.35962 1.5582-3.8357 1.5582-3.8357s1.1986-3.5359 1.1986-3.7756c0-0.23971-0.35962-2.2174-0.29969-2.4572 0.05992-0.23969 0.59939-0.47945 0.77914-0.71908 0.17978-0.23976 3.7158-6.2928 3.7158-6.2928l-0.11991-0.11992 0.53938-0.83899-0.2397-0.23969 0.35962-1.6781 0.839-1.3185 0.89892-0.47945 1.0189 0.17977s0.41947 0.29961 0.41947 0.59939c0 0.29961 0.47945 0.17977 1.0189 0.41947 0.53938 0.23976 1.3784 0.53938 1.7979 0.65924 0.41952 0.11992 0.47953 0.53938 0.41952 1.1986-0.06 0.65924-0.53938 1.9777-1.0788 2.5771-0.53932 0.59931-1.3784 1.9777-1.8578 2.6369-0.47945 0.65929-1.5582 2.757-1.9178 3.3562-0.35954 0.59931-1.9777 4.4947-2.1575 4.8543-0.17978 0.35962-0.65924 1.738-0.65924 2.2174 0 0.47945 0.17977 3.596 0.23976 3.9555 0.0599 0.35962 0.2397 2.9366 0.2397 3.5359 0 0.59939-0.17977 1.6781-0.17977 2.2174 0 0.53938 0.0599 1.0788 0.53938 1.798 0.47945 0.71908 1.0189 1.5582 1.0189 2.1575 0 0.59931 0.35962 2.0376 0.0599 2.4572-0.29961 0.41952-1.3185 1.1388-1.738 1.5582-0.41948 0.41952-1.0188 1.738-1.0188 2.0376 0 0.29961-0.71916 0.95893-1.3185 1.4982-0.59938 0.53938-0.71916 0.95893-0.41952 1.6181 0.29969 0.65924 0.59939 1.738 0.35962 1.9777-0.23969 0.23976-2.8168 3.7158-2.9964 4.1352-0.17977 0.41947-1.798 2.6369-2.3972 3.356-0.59939 0.71916-1.3185 2.0376-2.0976 3.1165-0.77906 1.0787-1.4982 2.5171-1.7979 3.1763-0.29969 0.65924-0.23976 2.3972-0.23976 2.637v0.65924l-0.41947-0.23977-0.05992 1.6781s0.899 0.77914 0.899 1.1986c0 0.41952-0.53938 4.3749-0.77914 4.8546-0.23969 0.47945-0.65924 2.5171-1.1387 2.6369-0.47945 0.11985-1.0788 0.41952-1.0788 0.41952v0.23969l-3.356 0.53938-0.05992-0.47945-2.1575 0.29961-1.2585 0.899 0.47945 0.53938-2.0376 2.0376-0.65924-0.47953-0.41952 0.23976 0.23976 0.71916h-0.47953l-0.29961-0.53938s-0.23969 0.17977-0.53933 0.2397c-0.29982 0.0602-0.59944 0.0602-0.7193-0.05965z" stroke-width=".24805"/>
  <g stroke-width=".26458">
   <path d="m75.974 94.792s0 0.59328-0.33904 0.84754c-0.33904 0.25425-1.2713 1.2713-1.4408 1.5679-0.16955 0.2966-0.33904 0.84754-0.25433 1.1018 0.08478 0.25432 0.50858 0.59335 0.88995 0.59335s2.2037-1.6527 2.4578-1.6527c0.25419 0 0.55094 0.16955 0.84754-0.16948 0.2966-0.33904 0.2966-0.50858 0.46609-0.67807 0.16955-0.16955 0.12713-0.63571-0.12706-0.93231s-0.25426-0.55086-0.72041-0.67807-1.0594-0.12713-1.2714-0.08478c-0.21183 0.04249-0.59322 0.21204-0.50845 0.08485z"/>
   <path d="m68.473 97.165s0.55094 0 0.33904-0.46609c-0.21183-0.46617-0.67807-0.72041-1.017-0.72041-0.33896 0-0.42381 0.25425-0.25426 0.46609 0.16948 0.2119 0.25426 0.50858 0.46617 0.63572 0.21183 0.12706 0.50845 0.16948 0.46609 0.08471z"/>
   <path d="m69.278 93.689 0.59328-0.72041h0.50858l0.12713-0.55094-0.93231-0.72041-1.1865 1.3561z"/>
  </g>
 </g>
</svg>
